<svg width="24" height="25" viewBox="0 0 24 25" fill="none" xmlns="http://www.w3.org/2000/svg">
<circle cx="12" cy="12.251" r="12" fill="#670FF2" fill-opacity="0.12"/>
<g clip-path="url(#clip0_597_5)">
<path d="M11.9866 12.2344C13.6086 12.2344 14.9231 10.9198 14.9231 9.29786C14.9231 7.67588 13.6086 6.36133 11.9866 6.36133C10.3646 6.36133 9.05005 7.67588 9.05005 9.29786C9.05005 10.9198 10.3646 12.2344 11.9866 12.2344ZM14.0422 12.9685H13.659C13.1497 13.2025 12.5831 13.3356 11.9866 13.3356C11.3901 13.3356 10.8257 13.2025 10.3141 12.9685H9.93101C8.22874 12.9685 6.84766 14.3496 6.84766 16.0519V17.0063C6.84766 17.6142 7.3409 18.1075 7.94886 18.1075H16.0243C16.6323 18.1075 17.1255 17.6142 17.1255 17.0063V16.0519C17.1255 14.3496 15.7444 12.9685 14.0422 12.9685Z" fill="#670FF2"/>
</g>
<defs>
<clipPath id="clip0_597_5">
<rect width="11.7461" height="11.7461" fill="white" transform="translate(6.11328 6.36133)"/>
</clipPath>
</defs>
</svg>
