<svg width="25" height="24" viewBox="0 0 25 24" fill="none" xmlns="http://www.w3.org/2000/svg">
<path fill-rule="evenodd" clip-rule="evenodd" d="M2.16992 12.0012C2.16992 11.8023 2.24894 11.6115 2.38959 11.4709C2.53024 11.3302 2.72101 11.2512 2.91992 11.2512H20.6094L15.8889 6.53219C15.7481 6.39136 15.669 6.20036 15.669 6.00119C15.669 5.80203 15.7481 5.61102 15.8889 5.47019C16.0298 5.32936 16.2208 5.25024 16.4199 5.25024C16.6191 5.25024 16.8101 5.32936 16.9509 5.47019L22.9509 11.4702C23.0208 11.5399 23.0762 11.6226 23.114 11.7137C23.1518 11.8049 23.1713 11.9025 23.1713 12.0012C23.1713 12.0998 23.1518 12.1975 23.114 12.2886C23.0762 12.3798 23.0208 12.4625 22.9509 12.5322L16.9509 18.5322C16.8101 18.673 16.6191 18.7521 16.4199 18.7521C16.2208 18.7521 16.0298 18.673 15.8889 18.5322C15.7481 18.3914 15.669 18.2004 15.669 18.0012C15.669 17.802 15.7481 17.611 15.8889 17.4702L20.6094 12.7512H2.91992C2.72101 12.7512 2.53024 12.6722 2.38959 12.5315C2.24894 12.3909 2.16992 12.2001 2.16992 12.0012Z" fill="#6c757d"/>
</svg>
