<svg width="150" height="55" viewBox="0 0 150 55" fill="none" xmlns="http://www.w3.org/2000/svg">
<g clip-path="url(#clip0_64_20)">
<path d="M90.3804 45.6474C90.3804 46.5 90.2908 44.8162 90.3804 45.6474Z" fill="#380094"/>
<path d="M131.96 45.3746H131.938C131.938 45.268 131.943 45.2041 131.96 45.3746Z" fill="#380094"/>
<path d="M131.973 45.4598C131.973 45.8648 131.947 45.5536 131.938 45.3746C131.938 45.268 131.943 45.2041 131.96 45.3746C131.96 45.3959 131.968 45.4257 131.973 45.4598Z" fill="#380094"/>
<path d="M131.973 45.3746V45.4598C131.973 45.8648 131.947 45.5536 131.938 45.3746C131.938 45.268 131.943 45.2041 131.96 45.3746H131.973Z" fill="#380094"/>
<path d="M19.6814 0.34219C15.393 0.34219 11.906 3.82917 11.906 8.11757C11.906 9.72465 12.3962 11.2209 13.236 12.4614C14.6342 14.5288 19.6814 19.9895 19.6814 19.9895C19.6814 19.9895 24.9417 14.4052 26.3101 12.18C27.039 10.995 27.4568 9.60529 27.4568 8.11757C27.4568 3.82917 23.9698 0.34219 19.6814 0.34219ZM19.6814 12.4358C17.1919 12.4358 15.1756 10.4195 15.1756 7.93C15.1756 5.44052 17.1919 3.42421 19.6814 3.42421C22.1709 3.42421 24.1872 5.44052 24.1872 7.93C24.1872 10.4195 22.1709 12.4358 19.6814 12.4358Z" fill="#FF6675"/>
<path d="M3.96868 40.1995V24.5166H0V21.2385H3.96868V14.6866H7.69012V21.2385H12.554V24.5166H7.69012V39.4066C7.69012 41.1928 8.48301 42.4844 10.1242 42.4844C11.1686 42.4844 12.1576 42.0368 12.6563 41.4912L13.7476 44.2705C12.8055 45.1657 11.4627 45.8094 9.28015 45.8094C5.7548 45.8094 3.96868 43.776 3.96868 40.1995Z" fill="#F9F9F9"/>
<path d="M17.8186 45.2126V21.2385H21.54V45.2126H17.8186Z" fill="#F9F9F9"/>
<path d="M39.5589 20.6417C43.9283 20.6417 46.5073 22.4278 48.3445 24.8108L45.8636 27.0956C44.2736 24.9131 42.2402 23.9667 39.7592 23.9667C34.6481 23.9667 31.4681 27.8885 31.4681 33.2C31.4681 38.5115 34.6438 42.4801 39.7592 42.4801C42.2402 42.4801 44.2778 41.4869 45.8636 39.3512L48.3445 41.6361C46.5073 44.019 43.9283 45.8051 39.5589 45.8051C32.4101 45.8051 27.5974 40.3445 27.5974 33.1957C27.5974 26.047 32.4101 20.6375 39.5589 20.6375V20.6417Z" fill="#F9F9F9"/>
<path d="M69.8846 45.2126L61.2481 34.4405L57.2752 38.3623V45.2126H53.5537V12.1076H57.2752V33.9971L69.8846 21.2428H74.5992L63.9763 32.113L74.6461 45.2169H69.8803L69.8846 45.2126Z" fill="#F9F9F9"/>
<path d="M79.7145 39.2574V26.7503H75.7458V21.2428H79.7145V14.6908H86.0661V21.2428H90.93V26.7503H86.0661V37.5694C86.0661 39.0571 86.859 40.1995 88.2487 40.1995C89.1908 40.1995 90.086 39.85 90.4313 39.5047L91.7698 44.2705C90.8277 45.1146 89.1396 45.8094 86.5095 45.8094C82.0932 45.8094 79.7103 43.5245 79.7103 39.2574H79.7145Z" fill="#F9F9F9"/>
<path d="M95.2484 45.2126V21.2385H101.553V24.5166C103.241 22.381 106.221 20.6929 109.196 20.6929V26.8484C108.749 26.7503 108.152 26.6992 107.457 26.6992C105.373 26.6992 102.593 27.8416 101.549 29.3805V45.2126H95.2441H95.2484Z" fill="#F9F9F9"/>
<path d="M112.475 13.9406C112.475 11.8561 114.214 10.168 116.247 10.168C118.281 10.168 120.02 11.8561 120.02 13.9406C120.02 16.0251 118.332 17.7132 116.247 17.7132C114.163 17.7132 112.475 16.0251 112.475 13.9406ZM113.118 45.2126V21.2385H119.423V45.2126H113.118Z" fill="#F9F9F9"/>
<path d="M131.981 54.3478H125.676V21.2385H131.981V24.2651C133.818 21.9334 136.448 20.6417 139.377 20.6417C145.532 20.6417 150 25.2072 150 33.2C150 41.1928 145.532 45.8094 139.377 45.8094C136.546 45.8094 133.916 44.6201 131.981 42.1348V54.3436V54.3478ZM137.39 26.2559C135.357 26.2559 133.021 27.4452 131.981 28.9841V37.4713C133.025 38.959 135.357 40.1995 137.39 40.1995C141.014 40.1995 143.448 37.369 143.448 33.2C143.448 29.0309 141.014 26.2516 137.39 26.2516V26.2559Z" fill="#F9F9F9"/>
</g>
<defs>
<clipPath id="clip0_64_20">
<rect width="150" height="54.0056" fill="white" transform="translate(0 0.34219)"/>
</clipPath>
</defs>
</svg>
