<svg width="120" height="44" viewBox="0 0 120 44" fill="none" xmlns="http://www.w3.org/2000/svg">
<g clip-path="url(#clip0_2336_83242)">
<path d="M72.3043 36.9869C72.3043 37.669 72.2327 36.3219 72.3043 36.9869Z" fill="#380094"/>
<path d="M105.568 36.7694H105.551C105.551 36.6834 105.554 36.6318 105.568 36.7694Z" fill="#380094"/>
<path d="M105.578 36.8369C105.578 37.1608 105.558 36.9119 105.551 36.7687C105.551 36.6834 105.554 36.6322 105.568 36.7687C105.568 36.7857 105.575 36.8096 105.578 36.8369Z" fill="#380094"/>
<path d="M105.578 36.7687V36.8369C105.578 37.1608 105.558 36.9119 105.551 36.7687C105.551 36.6834 105.554 36.6322 105.568 36.7687H105.578Z" fill="#380094"/>
<path d="M15.7447 0.742798C12.314 0.742798 9.52441 3.53239 9.52441 6.9631C9.52441 8.24877 9.91659 9.44576 10.5884 10.4381C11.707 12.0921 15.7447 16.4607 15.7447 16.4607C15.7447 16.4607 19.953 11.9932 21.0477 10.2131C21.6308 9.26502 21.965 8.15328 21.965 6.9631C21.965 3.53239 19.1754 0.742798 15.7447 0.742798ZM15.7447 10.4177C13.7531 10.4177 12.1401 8.80464 12.1401 6.81305C12.1401 4.82146 13.7531 3.20841 15.7447 3.20841C17.7363 3.20841 19.3494 4.82146 19.3494 6.81305C19.3494 8.80464 17.7363 10.4177 15.7447 10.4177Z" fill="#FF6675"/>
<path d="M3.17495 32.6286V20.0823H0V17.4598H3.17495V12.2183H6.1521V17.4598H10.0432V20.0823H6.1521V31.9943C6.1521 33.4232 6.7864 34.4565 8.09935 34.4565C8.93486 34.4565 9.72604 34.0984 10.125 33.6619L10.9981 35.8854C10.2444 36.6016 9.17017 37.1165 7.42412 37.1165C4.60384 37.1165 3.17495 35.4898 3.17495 32.6286Z" fill="#520DC2"/>
<path d="M14.2549 36.6391V17.4598H17.232V36.6391H14.2549Z" fill="#520DC2"/>
<path d="M31.6473 16.9824C35.1428 16.9824 37.206 18.4113 38.6758 20.3176L36.6911 22.1455C35.419 20.3995 33.7923 19.6424 31.8076 19.6424C27.7187 19.6424 25.1746 22.7798 25.1746 27.029C25.1746 31.2782 27.7153 34.4531 31.8076 34.4531C33.7923 34.4531 35.4224 33.6586 36.6911 31.95L38.6758 33.7779C37.206 35.6842 35.1428 37.1131 31.6473 37.1131C25.9283 37.1131 22.0781 32.7446 22.0781 27.0256C22.0781 21.3066 25.9283 16.979 31.6473 16.979V16.9824Z" fill="#520DC2"/>
<path d="M55.9075 36.6391L48.9983 28.0213L45.8199 31.1588V36.6391H42.8428V10.155H45.8199V27.6667L55.9075 17.4632H59.6792L51.1808 26.1593L59.7167 36.6425H55.904L55.9075 36.6391Z" fill="#520DC2"/>
<path d="M63.7716 31.875V21.8693H60.5967V17.4632H63.7716V12.2217H68.8529V17.4632H72.744V21.8693H68.8529V30.5245C68.8529 31.7147 69.4872 32.6286 70.599 32.6286C71.3526 32.6286 72.0688 32.349 72.345 32.0728L73.4158 35.8854C72.6622 36.5607 71.3117 37.1165 69.2076 37.1165C65.6745 37.1165 63.7682 35.2886 63.7682 31.875H63.7716Z" fill="#520DC2"/>
<path d="M76.1987 36.6391V17.4598H81.2425V20.0823C82.5929 18.3738 84.9767 17.0233 87.3571 17.0233V21.9477C86.999 21.8693 86.5216 21.8284 85.9657 21.8284C84.2981 21.8284 82.0746 22.7423 81.2391 23.9734V36.6391H76.1953H76.1987Z" fill="#520DC2"/>
<path d="M89.9795 11.6215C89.9795 9.95385 91.3709 8.60339 92.9976 8.60339C94.6243 8.60339 96.0156 9.95385 96.0156 11.6215C96.0156 13.2891 94.6652 14.6395 92.9976 14.6395C91.33 14.6395 89.9795 13.2891 89.9795 11.6215ZM90.4944 36.6391V17.4598H95.5382V36.6391H90.4944Z" fill="#520DC2"/>
<path d="M105.585 43.9473H100.541V17.4599H105.585V19.8811C107.055 18.0157 109.159 16.9824 111.502 16.9824C116.426 16.9824 120 20.6348 120 27.029C120 33.4233 116.426 37.1166 111.502 37.1166C109.237 37.1166 107.133 36.1651 105.585 34.1769V43.9439V43.9473ZM109.912 21.4737C108.286 21.4737 106.417 22.4252 105.585 23.6563V30.4461C106.42 31.6363 108.286 32.6287 109.912 32.6287C112.811 32.6287 114.758 30.3643 114.758 27.029C114.758 23.6938 112.811 21.4703 109.912 21.4703V21.4737Z" fill="#520DC2"/>
</g>
<defs>
<clipPath id="clip0_2336_83242">
<rect width="120" height="43.2045" fill="white" transform="translate(0 0.742798)"/>
</clipPath>
</defs>
</svg>
